<?xml version="1.0" standalone="no"?>
<!DOCTYPE svg PUBLIC "-//W3C//DTD SVG 20010904//EN"
 "http://www.w3.org/TR/2001/REC-SVG-20010904/DTD/svg10.dtd">
<svg version="1.0" xmlns="http://www.w3.org/2000/svg"
 width="1592.000000pt" height="1592.000000pt" viewBox="0 0 1592.000000 1592.000000"
 preserveAspectRatio="xMidYMid meet">
<metadata>
Created by potrace 1.14, written by Peter Selinger 2001-2017
</metadata>
<g transform="translate(0.000000,1592.000000) scale(0.100000,-0.100000)"
fill="#000000" stroke="none">
<path d="M7665 11543 c-106 -7 -386 -46 -505 -69 -504 -99 -954 -293 -1382
-594 -210 -147 -448 -379 -605 -588 -307 -406 -508 -909 -548 -1367 -4 -44 -9
-89 -11 -99 -10 -52 -19 -317 -19 -531 0 -324 9 -449 60 -797 18 -121 24 -191
19 -234 l-6 -61 -59 18 c-209 65 -404 -8 -502 -189 -145 -267 -157 -717 -33
-1209 63 -248 153 -456 280 -648 51 -77 118 -188 150 -246 32 -58 74 -124 94
-147 85 -94 204 -146 367 -160 l90 -7 32 -160 c18 -88 35 -173 38 -190 22
-119 114 -346 191 -473 43 -71 162 -238 195 -272 8 -9 48 -54 89 -100 125
-142 143 -161 204 -222 85 -85 207 -195 322 -290 120 -100 110 -92 354 -266
137 -97 195 -144 195 -158 0 -15 -13 -22 -70 -35 -38 -9 -77 -15 -86 -13 -9 1
-32 5 -50 7 -19 3 -56 9 -84 13 -70 11 -76 11 -117 -3 -20 -6 -50 -14 -67 -16
-51 -8 -161 -49 -240 -90 -62 -31 -232 -83 -340 -103 -14 -3 -28 -7 -33 -10
-4 -3 -16 -7 -26 -9 -9 -1 -136 -32 -282 -68 -284 -70 -599 -144 -640 -151
-14 -3 -77 -16 -140 -30 -63 -13 -128 -27 -145 -29 -116 -18 -221 -42 -284
-63 -124 -42 -122 -38 -39 -93 192 -125 614 -352 848 -457 774 -346 1546 -542
2420 -616 230 -19 905 -16 1136 5 99 10 198 19 220 22 173 21 234 30 414 61
867 148 1706 458 2443 903 172 104 217 133 217 142 0 12 -151 58 -249 74 -48
9 -98 18 -111 20 -14 3 -45 10 -70 15 -25 5 -56 12 -70 15 -14 3 -41 8 -60 12
-41 8 -31 6 -105 22 -33 8 -64 14 -70 15 -24 5 -262 61 -385 92 -74 18 -146
35 -160 38 -14 2 -70 16 -125 31 -55 15 -107 28 -116 30 -152 31 -389 101
-455 134 -95 48 -214 88 -305 102 -63 10 -87 8 -207 -16 -13 -2 -62 4 -110 14
-116 24 -119 39 -22 107 38 27 116 82 173 122 56 40 113 81 126 90 35 25 77
59 171 137 240 199 339 296 575 564 17 18 35 39 40 45 6 6 41 52 78 101 37 50
71 95 75 100 23 30 85 140 116 207 72 152 116 299 160 528 24 120 30 156 28
163 -1 4 4 7 10 8 198 8 279 29 375 95 59 41 114 108 167 208 50 91 105 181
172 279 162 235 277 584 333 1002 11 87 10 75 15 230 9 304 -72 586 -205 709
-82 77 -147 100 -269 99 -55 0 -115 -7 -142 -16 l-48 -15 0 34 c0 21 -8 42
-20 54 -26 26 -26 25 9 242 53 329 63 435 66 753 2 165 -1 354 -6 420 -45 605
-223 1112 -542 1545 -269 365 -595 636 -1067 888 -512 273 -1263 434 -1835
395z"/>
</g>
</svg>
