<?xml version="1.0" encoding="iso-8859-1"?>
<!-- Generator: Adobe Illustrator 18.1.1, SVG Export Plug-In . SVG Version: 6.00 Build 0)  -->
<svg version="1.1" id="Capa_1" xmlns="http://www.w3.org/2000/svg" xmlns:xlink="http://www.w3.org/1999/xlink" x="0px" y="0px"
	 viewBox="0 0 492 492" width="38.000000pt" height="38.000000pt"  xml:space="preserve">
<g>
	<g>
		<path style="fill:#dddddd;" d="M459.905,286l-1-3c-5.334-14-11.668-23-19-27c-4.668-3.333-12.668-6-24-8
			c-5.334-0.668-9.334-1.335-12-2c-0.668-0.668-1.668-1.335-3-2c-9.334-7.333-30.834-16.167-64.5-26.5
			c-33.668-10.334-57.5-22.168-71.5-35.5c-58-52-110-112.667-156-182l-65,52l-3.5,2.5c-2.333,1.667-4,3-5,4s-2,2.667-3,5
			s-1.5,5.167-1.5,8.5c0,6,4.667,7.667,14,5l37-12l103,143v78v18c0,4,1.167,8.5,3.5,13.5s6.167,9.167,11.5,12.5l-39,162h26l24-77
			l25-38v39v76h30V364c0-2,0.332-4.5,1-7.5c0.666-3,3.166-6.833,7.5-11.5c4.332-4.667,10.332-7,18-7c7.666,0,13.5,2.167,17.5,6.5
			s6.332,8.5,7,12.5l1,7v91v37h20V389l57,103h26c-4-11.333-10.334-23.333-19-36c-8.668-12.667-13-26-13-40v-26
			c0-9.333,5.166-22.5,15.5-39.5c10.332-17,15.5-29.833,15.5-38.5v-26c0-6-0.668-11.667-2-17c5.332,1.335,9.332,2.668,12,4
			c3.34,2,6.672,8,10,18l1,3c2.666,6,7.166,7.833,13.5,5.5C460.745,297.167,462.579,292.667,459.905,286z"/>
	</g>
</g>
<g>
</g>
<g>
</g>
<g>
</g>
<g>
</g>
<g>
</g>
<g>
</g>
<g>
</g>
<g>
</g>
<g>
</g>
<g>
</g>
<g>
</g>
<g>
</g>
<g>
</g>
<g>
</g>
<g>
</g>
</svg>
